<?xml version="1.0" encoding="UTF-8"?>
<svg id="Layer_1" data-name="Layer 1" xmlns="http://www.w3.org/2000/svg" viewBox="0 0 780.29 401.91">
  <defs>
    <style>
      .cls-1 {
        fill: #fff;
      }

      .cls-2 {
        fill: #e96a25;
      }
    </style>
  </defs>
  <path class="cls-1" d="M168.03.01H0v216.28h56.67l-.22-64.99s104.97.02,111.07.02c44.41,0,76.57-34.8,76.57-76.44S207.61.01,168.03.01ZM177.78,86.26H56.63s-.09-21.23-.09-21.23l121.25.05s10.2-.23,10.2,10.4-10.2,10.78-10.2,10.78Z"/>
  <polygon class="cls-1" points="729.2 0 649.75 84.93 569.34 .09 512.81 .09 512.81 216.36 569.32 216.36 569.32 80.8 649.16 165.42 728.42 81.1 728.42 216.36 780.19 216.36 780.19 0 729.2 0"/>
  <g>
    <path class="cls-2" d="M.16,303.97h34.38l15.63,44.15,4.69,18.49h.91l4.69-18.49,15.76-44.15h34.38v96.38h-22.4v-68.25h-.91l-7.03,22.92-14.85,41.03h-20.19l-14.85-41.03-7.03-22.92h-1.04v68.25H.16v-96.38Z"/>
    <path class="cls-2" d="M279.65,364.4c11.89-5.03,17.84-14.5,17.84-28.39,0-5.82-.93-10.83-2.8-15.04-1.87-4.21-4.8-7.68-8.79-10.42-4-2.73-9.05-4.73-15.17-5.99-6.12-1.26-13.48-1.89-22.07-1.89-4.69,0-9.44.15-14.26.46-4.82.31-9.62.8-14.39,1.5v95.73h24.88v-77.62c1.12-.17,2.56-.3,4.3-.39,1.73-.09,3.21-.13,4.43-.13,3.56,0,6.53.22,8.92.65,2.39.43,4.3,1.19,5.73,2.28,1.43,1.09,2.45,2.52,3.06,4.3.61,1.78.91,4.02.91,6.71s-.31,4.8-.91,6.58c-.61,1.78-1.65,3.21-3.13,4.3-1.48,1.09-3.41,1.87-5.8,2.34-2.39.48-5.4.72-9.05.72-1.82,0-3.45-.04-4.88-.13-.45-.03,25.98,50.4,25.98,50.4h27.09l-21.88-35.95Z"/>
    <path class="cls-2" d="M310,303.97h24.88v37.77h11.2l19.28-37.77h27.48l-23.58,42.59-1.86,3.38v1.04l2.12,3.65,25.79,45.71h-27.61l-20.84-38.94h-11.98v38.94h-24.88v-96.38Z"/>
    <path class="cls-2" d="M402.21,303.97h68.37v19.67h-43.5v18.62h17.8v19.54h-17.8v18.89h44.67v19.67h-69.55v-96.38Z"/>
    <path class="cls-2" d="M503.92,323.77h-25.39v-19.8h75.54v19.8h-25.39v76.58h-24.75v-76.58Z"/>
    <path class="cls-2" d="M564.48,303.97h24.88v96.38h-24.88v-96.38Z"/>
    <path class="cls-2" d="M605.51,303.97h19.92l35.3,47.15,6.77,10.55h1.3v-57.7h21.62v96.38h-19.8l-34.77-46.5-7.42-11.33h-1.17v57.83h-21.75v-96.38Z"/>
    <path class="cls-2" d="M749.29,401.91c-15.8-.09-27.52-4.19-35.16-12.31-7.64-8.12-11.46-20.56-11.46-37.31,0-33.25,16.67-49.88,50.01-49.88,4.17,0,8.59.28,13.28.85,4.69.56,8.99,1.32,12.89,2.28v19.67c-5.21-.95-9.79-1.63-13.74-2.02-3.95-.39-7.4-.59-10.35-.59-5.21,0-9.53.46-12.96,1.37-3.43.91-6.14,2.52-8.14,4.82-2,2.3-3.41,5.36-4.23,9.18-.83,3.82-1.24,8.6-1.24,14.33s.34,10.49,1.04,14.26c.69,3.78,1.91,6.77,3.65,8.99,1.73,2.21,4.08,3.78,7.03,4.69,2.95.91,6.64,1.37,11.07,1.37h3.19c1.17,0,2.37-.09,3.58-.26v-29.95h22.53v46.49c-5.73,1.22-11.29,2.2-16.67,2.93-5.39.74-10.16,1.11-14.33,1.11Z"/>
  </g>
  <path class="cls-2" d="M183.8,303.97h-36.99l-28.39,95.2v1.17h23.7l5.77-20.44h34.83l5.77,20.44h23.83v-1.17l-28.52-95.2ZM153.58,359.75l10.82-38.33h1.82l10.82,38.33h-23.45Z"/>
  <g>
    <g>
      <path class="cls-1" d="M548.61,285.21c-2.32,0-4.68-.06-7.06-.2-2.39-.13-4.65-.33-6.8-.59v-48.49c3.5-.22,6.52-.39,9.03-.53,2.52-.13,4.76-.2,6.74-.2,4.69,0,8.71.47,12.06,1.41,3.35.94,6.1,2.42,8.25,4.43,2.14,2.02,3.72,4.61,4.73,7.79,1.01,3.18,1.51,6.98,1.51,11.4s-.53,8.34-1.58,11.5c-1.05,3.15-2.71,5.73-4.96,7.72-2.26,1.99-5.19,3.45-8.8,4.37-3.61.92-7.98,1.38-13.11,1.38ZM553.4,275.29c2.06,0,3.79-.24,5.19-.72,1.4-.48,2.52-1.29,3.35-2.43.83-1.14,1.42-2.68,1.77-4.63.35-1.95.53-4.39.53-7.33s-.2-5.3-.59-7.23c-.39-1.93-1.04-3.47-1.94-4.63-.9-1.16-2.09-1.98-3.58-2.46-1.49-.48-3.35-.72-5.58-.72-.88,0-1.73.03-2.56.1-.83.06-1.77.14-2.83.23v29.44c2.23.26,4.31.39,6.24.39Z"/>
      <path class="cls-1" d="M613.39,266.35c6-2.54,9-7.31,9-14.32,0-2.93-.47-5.46-1.41-7.59-.94-2.12-2.42-3.88-4.43-5.26-2.02-1.38-4.57-2.39-7.65-3.02-3.09-.63-6.8-.95-11.14-.95-2.36,0-4.76.08-7.19.23-2.43.15-4.85.41-7.26.76v48.29h12.55v-39.16c.57-.09,1.29-.15,2.17-.2s1.62-.07,2.23-.07c1.8,0,3.3.11,4.5.33,1.2.22,2.17.6,2.89,1.15.72.55,1.24,1.27,1.54,2.17.31.9.46,2.03.46,3.38s-.15,2.42-.46,3.32c-.31.9-.83,1.62-1.58,2.17-.75.55-1.72.94-2.92,1.18-1.2.24-2.73.36-4.57.36-.92,0-1.74-.02-2.46-.07-.29-.02,13.11,25.43,13.11,25.43h13.67l-11.04-18.13Z"/>
      <path class="cls-1" d="M628.7,235.87h12.55v48.62h-12.55v-48.62Z"/>
      <path class="cls-1" d="M645.12,235.87h12.94l8.02,26.94,2.23,10.32h.85l2.3-10.32,8.02-26.94h12.62l-14.98,48.62h-16.89l-15.11-48.62Z"/>
      <path class="cls-1" d="M696.04,235.87h34.49v9.92h-21.94v9.4h8.98v9.86h-8.98v9.53h22.54v9.92h-35.09v-48.62Z"/>
      <path class="cls-1" d="M737.44,235.87h10.05l17.81,23.78,3.42,5.32h.66v-29.11h10.91v48.62h-9.99l-17.54-23.46-3.74-5.72h-.59v29.17h-10.97v-48.62Z"/>
    </g>
    <g>
      <path class="cls-1" d="M.48,236.08c5-.66,9.82-.99,14.47-.99,4.34,0,8.07.34,11.18,1.02,3.11.68,5.67,1.74,7.66,3.19,1.99,1.45,3.46,3.29,4.41,5.52.94,2.24,1.41,4.91,1.41,8.02,0,6.01-1.97,10.45-5.92,13.32-3.95,2.87-10.02,4.31-18.22,4.31h-2.43v13.94H.48v-48.34ZM17.32,260.74c1.84,0,3.36-.13,4.57-.4,1.21-.26,2.18-.7,2.93-1.31.74-.61,1.27-1.42,1.58-2.43.31-1.01.46-2.26.46-3.75s-.14-2.74-.43-3.75c-.29-1.01-.79-1.82-1.51-2.43-.72-.61-1.69-1.05-2.89-1.31-1.21-.26-2.73-.4-4.57-.4-.7,0-1.49.02-2.37.07-.88.04-1.56.11-2.04.2v15.19c.57.09,1.25.16,2.04.23.79.07,1.53.1,2.24.1Z"/>
      <path class="cls-1" d="M44.94,235.75h34.53v9.93h-21.97v9.4h8.25v9.87h-8.25v9.54h22.56v9.93h-35.12v-48.67Z"/>
      <path class="cls-1" d="M131.82,235.75h34.13v9.93h-21.57v10.79h19.33v9.93h-19.33v18.02h-12.56v-48.67Z"/>
      <path class="cls-1" d="M192.58,285.08c-7.58,0-13.3-2.08-17.13-6.25-3.84-4.16-5.75-10.39-5.75-18.68s1.92-14.59,5.75-18.78c3.84-4.19,9.55-6.28,17.13-6.28s13.36,2.09,17.2,6.28c3.84,4.19,5.75,10.45,5.75,18.78s-1.92,14.51-5.75,18.68c-3.84,4.17-9.57,6.25-17.2,6.25ZM192.58,275.01c1.93,0,3.54-.24,4.83-.72,1.29-.48,2.34-1.29,3.12-2.43.79-1.14,1.36-2.66,1.71-4.57.35-1.91.53-4.29.53-7.14s-.18-5.23-.53-7.14c-.35-1.91-.93-3.44-1.74-4.6-.81-1.16-1.87-1.99-3.16-2.5-1.29-.5-2.88-.76-4.77-.76s-3.48.25-4.77.76c-1.29.5-2.33,1.34-3.12,2.5-.79,1.16-1.36,2.7-1.71,4.6-.35,1.91-.53,4.29-.53,7.14s.17,5.22.53,7.1c.35,1.89.92,3.41,1.71,4.57.79,1.16,1.83,1.98,3.12,2.47,1.29.48,2.88.72,4.77.72Z"/>
      <path class="cls-1" d="M251.9,266.27c6.01-2.54,9.01-7.32,9.01-14.34,0-2.94-.47-5.47-1.41-7.6-.94-2.13-2.42-3.88-4.44-5.26-2.02-1.38-4.57-2.39-7.66-3.02-3.09-.64-6.81-.95-11.15-.95-2.37,0-4.77.08-7.2.23-2.43.15-4.86.41-7.27.76v48.34h12.56v-39.2c.57-.09,1.29-.15,2.17-.2.88-.04,1.62-.07,2.24-.07,1.8,0,3.3.11,4.5.33,1.21.22,2.17.6,2.9,1.15.72.55,1.24,1.27,1.55,2.17.31.9.46,2.03.46,3.39s-.16,2.42-.46,3.32c-.31.9-.83,1.62-1.58,2.17-.75.55-1.72.94-2.93,1.18-1.21.24-2.73.36-4.57.36-.23,0-.44,0-.67,0l-2.21-.09,13.53,25.48h13.68l-11.05-18.15Z"/>
      <path class="cls-1" d="M267.23,235.75h17.36l7.89,22.29,2.37,9.34h.46l2.37-9.34,7.96-22.29h17.36v48.67h-11.31v-34.46h-.46l-3.55,11.57-7.5,20.72h-10.19l-7.5-20.72-3.55-11.57h-.53v34.46h-11.18v-48.67Z"/>
      <path class="cls-1" d="M378.24,235.75h10.06l17.82,23.81,3.42,5.33h.66v-29.13h10.92v48.67h-10l-17.56-23.48-3.75-5.72h-.59v29.2h-10.98v-48.67Z"/>
      <path class="cls-1" d="M450.84,285.21c-7.94-.04-13.83-2.09-17.69-6.15-3.86-4.05-5.79-10.36-5.79-18.91s1.88-14.94,5.66-19.04c3.77-4.1,9.47-6.15,17.1-6.15,1.53,0,3.18.09,4.93.26,1.75.18,3.75.44,5.98.79v9.93c-2.28-.31-4.1-.52-5.46-.63-1.36-.11-2.61-.16-3.75-.16-2.24,0-4.1.22-5.59.66-1.49.44-2.67,1.22-3.55,2.33-.88,1.12-1.5,2.64-1.87,4.57-.37,1.93-.56,4.41-.56,7.43s.19,5.43.56,7.33c.37,1.91,1,3.41,1.87,4.51.88,1.1,2.05,1.86,3.52,2.3,1.47.44,3.3.66,5.49.66.7,0,1.47-.02,2.3-.07.83-.04,1.68-.11,2.53-.2.85-.09,1.67-.19,2.43-.3.77-.11,1.46-.23,2.07-.36v9.87c-1.36.4-2.95.71-4.77.95-1.82.24-3.63.36-5.43.36Z"/>
      <path class="cls-1" d="M467.15,235.75h34.53v9.93h-21.97v9.4h8.26v9.87h-8.26v9.54h22.56v9.93h-35.12v-48.67Z"/>
      <path class="cls-1" d="M359.96,235.75h-18.68l-14.34,48.07v.59h11.97l3.11-11.02h17.2l3.11,11.02h12.03v-.59l-14.4-48.07ZM344.57,264.35l5.58-19.79h.92l5.58,19.79h-12.09Z"/>
      <path class="cls-1" d="M116.18,266.27c6.01-2.54,9.01-7.32,9.01-14.34,0-2.94-.47-5.47-1.41-7.6-.94-2.13-2.42-3.88-4.44-5.26-2.02-1.38-4.57-2.39-7.66-3.02-3.09-.64-6.81-.95-11.15-.95-2.37,0-4.77.08-7.2.23-2.43.15-4.86.41-7.27.76v48.34h12.56v-39.2c.57-.09,1.29-.15,2.17-.2.88-.04,1.62-.07,2.24-.07,1.8,0,3.3.11,4.5.33,1.21.22,2.17.6,2.9,1.15.72.55,1.24,1.27,1.55,2.17.31.9.46,2.03.46,3.39s-.16,2.42-.46,3.32c-.31.9-.83,1.62-1.58,2.17-.75.55-1.72.94-2.93,1.18-1.21.24-2.73.36-4.57.36-.23,0-.44,0-.67,0l-2.21-.09,13.53,25.48h13.68l-11.05-18.15Z"/>
    </g>
  </g>
  <path class="cls-1" d="M398.33.1h-141.73v216.46h56.54v-.14h6.4v-.19s.13,0,.32,0v-65.21h-6.72v-86.25h90.08c11.73,0,41.11,10.71,41.11,43.2,0,16.05-7.47,27.22-16.76,34.15v68.25c35.52-12.02,73.1-47.14,73.1-102.35C500.67,35.45,434.88.1,398.33.1Z"/>
  <polygon class="cls-2" points="328.1 216.41 353.08 216.41 353.08 145.06 357.27 145.05 340.59 127.42 323.91 145.1 328.1 145.09 328.1 216.41"/>
  <polygon class="cls-2" points="361.45 216.41 386.27 216.41 386.27 116.12 390.43 116.12 373.97 98.7 357.57 116.12 361.45 116.12 361.45 216.41"/>
  <path class="cls-2" d="M394.51,216.41c14.94,0,24.8-3.52,24.8-3.52v-124.38h4.15s-16.55-17.62-16.55-17.62l-16.55,17.66h4.15s0,126.33,0,127.85Z"/>
</svg>